<mxfile host="Electron" agent="Mozilla/5.0 (Windows NT 10.0; Win64; x64) AppleWebKit/537.36 (KHTML, like Gecko) draw.io/28.0.4 Chrome/138.0.7204.97 Electron/37.2.1 Safari/537.36" version="28.0.4">
  <diagram name="Page-1" id="GVW95UKEel-sNmn3DPY9">
    <mxGraphModel dx="1426" dy="889" grid="1" gridSize="10" guides="1" tooltips="1" connect="1" arrows="1" fold="1" page="1" pageScale="1" pageWidth="1169" pageHeight="827" math="0" shadow="0">
      <root>
        <mxCell id="0" />
        <mxCell id="1" parent="0" />
        <mxCell id="BTwX-arwB9RrOb1D5DcH-2" value="SFML Window" style="text;html=1;align=center;verticalAlign=middle;whiteSpace=wrap;rounded=0;fontStyle=1;fontSize=14;" vertex="1" parent="1">
          <mxGeometry x="520" y="70" width="130" height="30" as="geometry" />
        </mxCell>
        <mxCell id="BTwX-arwB9RrOb1D5DcH-4" value="SFML Geometry" style="text;strokeColor=none;fillColor=none;html=1;fontSize=24;fontStyle=1;verticalAlign=middle;align=center;" vertex="1" parent="1">
          <mxGeometry x="427" y="20" width="315" height="40" as="geometry" />
        </mxCell>
        <mxCell id="BTwX-arwB9RrOb1D5DcH-6" value="" style="rounded=0;whiteSpace=wrap;html=1;fillColor=#e6d0de;strokeColor=#996185;gradientColor=#d5739d;" vertex="1" parent="1">
          <mxGeometry x="120" y="150" width="960" height="530" as="geometry" />
        </mxCell>
        <mxCell id="BTwX-arwB9RrOb1D5DcH-5" value="" style="ellipse;whiteSpace=wrap;html=1;aspect=fixed;fillColor=#1ba1e2;strokeColor=#006EAF;fontColor=#ffffff;" vertex="1" parent="1">
          <mxGeometry x="110" y="140" width="20" height="20" as="geometry" />
        </mxCell>
        <mxCell id="BTwX-arwB9RrOb1D5DcH-7" value="Point of Origon (0,0)" style="text;html=1;align=center;verticalAlign=middle;whiteSpace=wrap;rounded=0;fontSize=12;" vertex="1" parent="1">
          <mxGeometry x="55" y="120" width="130" height="20" as="geometry" />
        </mxCell>
        <mxCell id="BTwX-arwB9RrOb1D5DcH-8" value="X" style="text;html=1;align=center;verticalAlign=middle;whiteSpace=wrap;rounded=0;" vertex="1" parent="1">
          <mxGeometry x="220" y="120" width="60" height="30" as="geometry" />
        </mxCell>
        <mxCell id="BTwX-arwB9RrOb1D5DcH-9" value="Y" style="text;html=1;align=center;verticalAlign=middle;whiteSpace=wrap;rounded=0;" vertex="1" parent="1">
          <mxGeometry x="90" y="200" width="20" height="30" as="geometry" />
        </mxCell>
        <mxCell id="BTwX-arwB9RrOb1D5DcH-10" value="" style="endArrow=classic;html=1;rounded=0;" edge="1" parent="1">
          <mxGeometry width="50" height="50" relative="1" as="geometry">
            <mxPoint x="269" y="135" as="sourcePoint" />
            <mxPoint x="989" y="135" as="targetPoint" />
          </mxGeometry>
        </mxCell>
        <mxCell id="BTwX-arwB9RrOb1D5DcH-11" value="Draw direction of X" style="edgeLabel;html=1;align=center;verticalAlign=middle;resizable=0;points=[];" vertex="1" connectable="0" parent="BTwX-arwB9RrOb1D5DcH-10">
          <mxGeometry x="0.0861" y="2" relative="1" as="geometry">
            <mxPoint y="2" as="offset" />
          </mxGeometry>
        </mxCell>
        <mxCell id="BTwX-arwB9RrOb1D5DcH-12" value="" style="endArrow=classic;html=1;rounded=0;" edge="1" parent="1">
          <mxGeometry width="50" height="50" relative="1" as="geometry">
            <mxPoint x="99.5" y="270" as="sourcePoint" />
            <mxPoint x="99.5" y="640" as="targetPoint" />
          </mxGeometry>
        </mxCell>
        <mxCell id="BTwX-arwB9RrOb1D5DcH-13" value="Draw direction of Y" style="edgeLabel;html=1;align=center;verticalAlign=middle;resizable=0;points=[];rotation=-90;" vertex="1" connectable="0" parent="BTwX-arwB9RrOb1D5DcH-12">
          <mxGeometry x="0.0861" y="2" relative="1" as="geometry">
            <mxPoint x="-2" as="offset" />
          </mxGeometry>
        </mxCell>
        <mxCell id="BTwX-arwB9RrOb1D5DcH-15" value="+" style="text;html=1;align=center;verticalAlign=middle;whiteSpace=wrap;rounded=0;fontSize=16;fontStyle=1;fontColor=#FF3399;" vertex="1" parent="1">
          <mxGeometry x="70" y="650" width="60" height="30" as="geometry" />
        </mxCell>
        <mxCell id="BTwX-arwB9RrOb1D5DcH-16" value="+" style="text;html=1;align=center;verticalAlign=middle;whiteSpace=wrap;rounded=0;fontSize=16;fontStyle=1;fontColor=#FF3399;" vertex="1" parent="1">
          <mxGeometry x="990" y="120" width="60" height="30" as="geometry" />
        </mxCell>
        <mxCell id="BTwX-arwB9RrOb1D5DcH-17" value="" style="whiteSpace=wrap;html=1;aspect=fixed;fillColor=#60a917;fontColor=#ffffff;strokeColor=#2D7600;" vertex="1" parent="1">
          <mxGeometry x="540" y="330" width="80" height="80" as="geometry" />
        </mxCell>
        <mxCell id="BTwX-arwB9RrOb1D5DcH-18" value="" style="ellipse;whiteSpace=wrap;html=1;aspect=fixed;fillColor=#1ba1e2;fontColor=#ffffff;strokeColor=#006EAF;" vertex="1" parent="1">
          <mxGeometry x="840" y="280" width="160" height="160" as="geometry" />
        </mxCell>
        <mxCell id="BTwX-arwB9RrOb1D5DcH-19" value="if the circle is touching the right hand side of the window" style="text;html=1;align=center;verticalAlign=middle;whiteSpace=wrap;rounded=0;" vertex="1" parent="1">
          <mxGeometry x="750" y="220" width="330" height="30" as="geometry" />
        </mxCell>
        <mxCell id="BTwX-arwB9RrOb1D5DcH-20" value="true = (x+2r,y) &amp;gt;= winWidth" style="text;html=1;align=center;verticalAlign=middle;whiteSpace=wrap;rounded=0;" vertex="1" parent="1">
          <mxGeometry x="920" y="250" width="160" height="30" as="geometry" />
        </mxCell>
        <mxCell id="BTwX-arwB9RrOb1D5DcH-21" value="true = (x+2r,y+2r) &amp;gt;= winWidth" style="text;html=1;align=center;verticalAlign=middle;whiteSpace=wrap;rounded=0;" vertex="1" parent="1">
          <mxGeometry x="910" y="440" width="170" height="30" as="geometry" />
        </mxCell>
      </root>
    </mxGraphModel>
  </diagram>
</mxfile>
